<svg id="Grupo_2" data-name="Grupo 2" xmlns="http://www.w3.org/2000/svg" width="221.109" height="51" viewBox="0 0 221.109 51">
  <g id="Grupo_1" data-name="Grupo 1" transform="translate(0 14.355)">
    <path id="Caminho_1" data-name="Caminho 1" d="M2633.966,1634.1l-9.358,23.269a2.463,2.463,0,0,1-4.571,0l-9.359-23.269a9.854,9.854,0,0,0-9.143-6.177h-3.391a.493.493,0,0,0-.457.677l10.139,25.208a15.625,15.625,0,0,0,14.5,9.8h0a15.625,15.625,0,0,0,14.5-9.8l10.139-25.208a.493.493,0,0,0-.457-.677h-3.391A9.855,9.855,0,0,0,2633.966,1634.1Z" transform="translate(-2597.65 -1627.433)" fill="#0f4b55"></path>
    <path id="Caminho_2" data-name="Caminho 2" d="M2875.2,1634.1l-9.358,23.269a2.463,2.463,0,0,1-4.571,0l-9.359-23.269a9.854,9.854,0,0,0-9.143-6.177h-3.391a.493.493,0,0,0-.457.677l10.138,25.208a15.626,15.626,0,0,0,14.5,9.8h0a15.625,15.625,0,0,0,14.5-9.8l10.139-25.208a.493.493,0,0,0-.457-.677h-3.391A9.856,9.856,0,0,0,2875.2,1634.1Z" transform="translate(-2764.546 -1627.433)" fill="#0f4b55"></path>
    <path id="Retângulo_1" data-name="Retângulo 1" d="M1.54,0H8.948a1.6,1.6,0,0,1,1.6,1.6V33.588a1.6,1.6,0,0,1-1.6,1.6H1.6a1.6,1.6,0,0,1-1.6-1.6V1.54A1.54,1.54,0,0,1,1.54,0Z" transform="translate(56.005 0.493)" fill="#0f4b55"></path>
    <path id="Caminho_3" data-name="Caminho 3" d="M3191.753,1626.327c-14.3,0-22.484,8.1-22.484,18.086s8.185,18.086,22.484,18.086,22.483-8.1,22.483-18.086S3206.051,1626.327,3191.753,1626.327Zm0,31.571c-7.308,0-11.492-5.765-11.492-13.485s4.184-13.485,11.492-13.485,11.492,5.766,11.492,13.485S3199.061,1657.9,3191.753,1657.9Z" transform="translate(-2993.127 -1626.327)" fill="#0f4b55"></path>
    <path id="Caminho_4" data-name="Caminho 4" d="M3040.893,1650.135a.972.972,0,0,0-.913.616c-1.716,4.534-5.762,7.147-10.91,7.147-6.915,0-11.5-5.111-11.947-12.253a.5.5,0,0,1,.5-.521h32.414a.992.992,0,0,0,.987-1.042c-.494-10.618-8.591-17.755-22.441-17.755-14.3,0-22.484,8.1-22.484,18.086s8.678,18.086,22.976,18.086c11.065,0,18.925-4.852,21.737-11.674a.5.5,0,0,0-.452-.691Zm-12.316-19.207c6.242,0,10.2,4.074,11.226,10.217a.493.493,0,0,1-.488.569h-21.476a.493.493,0,0,1-.488-.569C3018.373,1635,3022.334,1630.928,3028.577,1630.928Z" transform="translate(-2880.232 -1626.327)" fill="#0f4b55"></path>
  </g>
  <ellipse id="Elipse_1" data-name="Elipse 1" cx="6.546" cy="5.266" rx="6.546" ry="5.266" transform="translate(54.733)" fill="#0f4b55"></ellipse>
</svg>